<?xml version="1.0" encoding="UTF-8" standalone="no"?>
<!-- Created with Inkscape (http://www.inkscape.org/) -->

<svg
   width="68.578171mm"
   height="13.279722mm"
   viewBox="0 0 68.578171 13.279722"
   version="1.1"
   id="svg1"
   xmlns="http://www.w3.org/2000/svg"
   xmlns:svg="http://www.w3.org/2000/svg">
  <defs
     id="defs1">
    <linearGradient
       id="SVGID_1_"
       gradientUnits="userSpaceOnUse"
       x1="212.5984"
       y1="45.272499"
       x2="212.5984"
       y2="186.2984">
					<stop
   offset="0"
   style="stop-color:#C43266"
   id="stop1" />

					<stop
   offset="0.5011"
   style="stop-color:#882C6F"
   id="stop2" />

					<stop
   offset="1"
   style="stop-color:#662975"
   id="stop3" />

				</linearGradient>
  </defs>
  <g
     id="layer1"
     transform="translate(-22.489582,-92.07501)">
    <g
       id="g4"
       transform="matrix(0.09416907,0,0,0.09416907,9.1674852,87.811967)">
				<linearGradient
   id="linearGradient6"
   gradientUnits="userSpaceOnUse"
   x1="212.5984"
   y1="45.272499"
   x2="212.5984"
   y2="186.2984">
					<stop
   offset="0"
   style="stop-color:#C43266"
   id="stop4" />

					<stop
   offset="0.5011"
   style="stop-color:#882C6F"
   id="stop5" />

					<stop
   offset="1"
   style="stop-color:#662975"
   id="stop6" />

				</linearGradient>

				<path
   class="st1"
   d="m 141.48,45.27 h 78.81 c 0,0 33.05,0.99 52.5,32.75 9.22,15.05 12.76,32.98 10.03,50.42 -3.02,19.3 -13.95,44.2 -48.69,54.22 -8.6,2.48 -17.53,3.63 -26.49,3.63 H 141.47 V 45.27 Z"
   id="path3"
   style="fill:url(#SVGID_1_)" />

				<path
   class="st2"
   d="m 155.71,58.45 h 56.38 c 0,0 26.98,-0.98 46.26,21.84 19.28,22.82 8.66,54.78 8.66,54.78 0,0 -14.52,43.06 -67.1,37.09 v -46.97 h 24.15 v 21.59 c 0,0 21.84,-6.47 22.33,-30.99 0,0 1.1,-23.18 -22.69,-31.35 v 21.35 H 199.91 V 82.72 h -19.89 v 67.1 H 155.7 V 58.45 Z"
   id="path4"
   style="fill:#f39239" />

			</g>
    <g
       id="g14"
       transform="matrix(0.26458333,0,0,0.26458333,26.739607,39.368821)"
       style="fill:#8b2c6e;fill-opacity:1">
      <path
         class="st3"
         d="m 48.67,227.37 v 10.55 h -6.61 v -27.13 h 10.7 c 2.11,0 3.92,0.39 5.43,1.16 1.51,0.77 2.64,1.79 3.4,3.05 0.76,1.26 1.14,2.63 1.14,4.1 0,1.24 -0.3,2.48 -0.91,3.73 -0.61,1.25 -1.66,2.32 -3.15,3.21 -1.49,0.89 -3.47,1.33 -5.91,1.33 z m 6.48,-5.91 c 0.58,-0.59 0.87,-1.38 0.87,-2.36 0,-0.95 -0.3,-1.74 -0.89,-2.36 -0.59,-0.62 -1.38,-0.93 -2.36,-0.93 h -4.1 v 6.53 h 4.1 c 1.01,0.01 1.8,-0.29 2.38,-0.88 z"
         id="path5"
         style="fill:#8b2c6e;fill-opacity:1" />
      <path
         class="st3"
         d="m 82.74,237.92 -6.11,-10.55 h -0.77 v 10.55 h -6.61 v -27.13 h 10.7 c 2.11,0 3.92,0.39 5.43,1.16 1.51,0.77 2.64,1.79 3.4,3.05 0.76,1.26 1.14,2.63 1.14,4.1 0,1.57 -0.48,3.1 -1.43,4.6 -0.95,1.49 -2.51,2.55 -4.68,3.17 l 6.65,11.05 z m -6.88,-15.57 h 4.1 c 1,0 1.8,-0.3 2.38,-0.89 0.58,-0.59 0.87,-1.38 0.87,-2.36 0,-0.95 -0.3,-1.74 -0.89,-2.36 -0.59,-0.62 -1.38,-0.93 -2.36,-0.93 h -4.1 z"
         id="path6"
         style="fill:#8b2c6e;fill-opacity:1" />
      <path
         class="st3"
         d="m 116.93,212.19 c 2.13,1.18 3.8,2.83 5.02,4.95 1.22,2.11 1.84,4.5 1.84,7.15 0,2.65 -0.62,5.04 -1.86,7.17 -1.24,2.13 -2.91,3.78 -5.02,4.97 -2.11,1.18 -4.44,1.78 -6.99,1.78 -2.55,0 -4.89,-0.59 -7.01,-1.78 -2.13,-1.18 -3.81,-2.84 -5.04,-4.97 -1.24,-2.13 -1.86,-4.51 -1.86,-7.17 0,-2.65 0.62,-5.04 1.86,-7.15 1.24,-2.11 2.92,-3.76 5.04,-4.95 2.13,-1.18 4.46,-1.78 7.01,-1.78 2.55,0 4.89,0.59 7.01,1.78 z m -12.25,6.41 c -1.3,1.42 -1.95,3.31 -1.95,5.68 0,2.37 0.65,4.26 1.95,5.68 1.3,1.42 3.05,2.13 5.24,2.13 2.16,0 3.9,-0.71 5.2,-2.13 1.3,-1.42 1.95,-3.31 1.95,-5.68 0,-2.37 -0.65,-4.26 -1.95,-5.68 -1.3,-1.42 -3.03,-2.13 -5.2,-2.13 -2.19,0 -3.94,0.71 -5.24,2.13 z"
         id="path7"
         style="fill:#8b2c6e;fill-opacity:1" />
      <path
         class="st3"
         d="m 153.04,231.39 c -1.28,2.06 -3.04,3.67 -5.29,4.81 -2.25,1.15 -4.8,1.72 -7.63,1.72 h -9.55 v -27.13 h 9.55 c 2.86,0 5.41,0.57 7.65,1.7 2.24,1.13 4,2.73 5.28,4.79 1.28,2.06 1.91,4.42 1.91,7.07 0,2.64 -0.64,4.98 -1.92,7.04 z m -6.97,-0.81 c 1.44,-1.55 2.16,-3.62 2.16,-6.22 0,-2.6 -0.72,-4.68 -2.16,-6.22 -1.44,-1.55 -3.43,-2.32 -5.95,-2.32 h -2.94 v 17.08 h 2.94 c 2.52,0 4.5,-0.77 5.95,-2.32 z"
         id="path8"
         style="fill:#8b2c6e;fill-opacity:1" />
      <path
         class="st3"
         d="m 168.27,210.79 v 27.13 h -6.61 v -27.13 z"
         id="path9"
         style="fill:#8b2c6e;fill-opacity:1" />
      <path
         class="st3"
         d="m 196.96,212.8 c 2.34,1.6 3.98,3.81 4.91,6.65 h -7.88 c -0.54,-1.06 -1.22,-1.82 -2.05,-2.28 -0.82,-0.46 -1.83,-0.7 -3.01,-0.7 -2.19,0 -3.94,0.71 -5.24,2.13 -1.3,1.42 -1.95,3.31 -1.95,5.68 0,2.37 0.65,4.26 1.95,5.68 1.3,1.42 3.05,2.13 5.24,2.13 1.57,0 2.85,-0.39 3.85,-1.18 0.99,-0.79 1.66,-1.84 1.99,-3.15 h -7.65 v -5.02 h 14.76 v 5.02 c -0.31,1.62 -1.04,3.23 -2.2,4.83 -1.16,1.6 -2.67,2.92 -4.52,3.98 -1.85,1.06 -3.93,1.58 -6.22,1.58 -2.55,0 -4.89,-0.59 -7.01,-1.78 -2.13,-1.18 -3.81,-2.83 -5.04,-4.95 -1.24,-2.11 -1.85,-4.5 -1.85,-7.15 0,-2.65 0.62,-5.04 1.85,-7.15 1.24,-2.11 2.92,-3.76 5.04,-4.95 2.13,-1.18 4.46,-1.78 7.01,-1.78 2.99,0.02 5.67,0.82 8.02,2.41 z"
         id="path10"
         style="fill:#8b2c6e;fill-opacity:1" />
      <path
         class="st3"
         d="m 215.25,210.79 v 27.13 h -6.61 v -27.13 z"
         id="path11"
         style="fill:#8b2c6e;fill-opacity:1" />
      <path
         class="st3"
         d="m 243.13,210.79 v 5.02 h -7.42 v 22.1 h -6.61 v -22.1 h -7.38 v -5.02 z"
         id="path12"
         style="fill:#8b2c6e;fill-opacity:1" />
    </g>
  </g>
</svg>
